<?xml version="1.0" encoding="UTF-8"?>
<svg id="Layer_1" data-name="Layer 1" xmlns="http://www.w3.org/2000/svg" viewBox="0 0 500 500">
  <defs>
    <style>
      .cls-1 {
        fill: #fff;
      }
    </style>
  </defs>
  <path d="M402,407.38c-85.5,82.61-221.45,81.75-305.94-1.93C10.59,320.79,9.57,182.91,93.75,97.02c84.98-86.73,224.51-87.59,310.56-1.99,86.81,86.36,85.77,227.26-2.31,312.35ZM165.55,335.03c14.78,4.48,29.67,4.88,44.18-.79,19.49-7.61,33.33-21.23,46.04-37.59,8.65-11.14,16.42-22.46,24.32-34.17,8.67-12.86,17.5-25.16,27.12-37.27,4.74-5.97,9.65-10,17.82-8.75,6,.92,11.96,5.66,12.02,12.5l.75,100.6c.03,3.65,2.69,8.43,6.44,8.67,9.86.62,19.51.15,29.44.25l-.04-120.9c0-5.29-3.22-9.75-7-12.93-5.06-4.26-11.32-6.31-17.93-6.79-13.35-.98-27.44,5.18-38.04,12.93-1.51,1.11-3.08,2.06-5.02.99v-66.94c0-2.52-1.69-4.57-4.35-4.57h-32.52s-.22,122.65-.22,122.65c0,2.59-.98,5.04-2.35,7.03-9.12,13.14-20,25.66-33.29,34.66-8.47,5.74-17.72,8.89-27.9,9.76-14.56,1.25-28.63-2.87-40.07-12.02-23.36-18.69-30.37-51.52-18.71-78.71,4.47-10.41,11.28-19.26,20.41-25.95,10.96-8.04,24.32-12.08,37.81-10.62,4.95.53,9.19,3.8,10.84,8.16,1.27,3.36.78,6.84-1.18,9.67-1.61,2.32-4.73,4-8.04,4.05l-9.72.14c-2.64.04-4.68,1.62-5.2,4.41-2.51,13.44,5.73,26.63,18.36,30.9s27.22-1.28,33.73-13.62c5.1-9.67,3.45-20.99-2.74-29.8-11.52-16.41-30.9-20.92-50.01-21.12-9.22-.1-17.89,1.06-26.67,3.59-4.49,1.29-8.27,2.99-12.38,5.13-29.39,15.28-46.18,46.62-42.44,79.55s25.83,57.61,56.58,66.94ZM268.75,330.81c1.04,4.46,4.66,7.68,9.2,7.68h27.69s-.05-73.57-.05-73.57c0-1.89-2.16-3.01-3.36-3.25-1.54-.31-3.92-.23-4.93,1.24l-27.24,39.77c-.82,1.19-1.32,3.02-1.32,4.43v23.7Z"/>
  <path class="cls-1" d="M165.55,335.03c-30.75-9.33-53.04-35.69-56.58-66.94-3.74-32.93,13.06-64.28,42.44-79.55,4.1-2.13,7.89-3.84,12.38-5.13,8.78-2.53,17.45-3.68,26.67-3.59,19.12.2,38.49,4.71,50.01,21.12,6.19,8.81,7.83,20.13,2.74,29.8-6.5,12.35-20.6,18.07-33.73,13.62s-20.86-17.46-18.36-30.9c.52-2.79,2.56-4.37,5.2-4.41l9.72-.14c3.31-.05,6.43-1.73,8.04-4.05,1.97-2.83,2.45-6.31,1.18-9.67-1.65-4.36-5.89-7.63-10.84-8.16-13.49-1.46-26.84,2.58-37.81,10.62-9.13,6.69-15.95,15.54-20.41,25.95-11.66,27.19-4.65,60.01,18.71,78.71,11.44,9.15,25.52,13.27,40.07,12.02,10.18-.87,19.43-4.02,27.9-9.76,13.29-9,24.17-21.52,33.29-34.66,1.38-1.99,2.35-4.43,2.35-7.03l.22-122.65h32.52c2.66,0,4.35,2.06,4.35,4.58v66.94c1.94,1.07,3.51.12,5.02-.99,10.6-7.75,24.69-13.9,38.04-12.93,6.61.48,12.87,2.53,17.93,6.79,3.78,3.19,7,7.64,7,12.93l.04,120.9c-9.92-.1-19.57.37-29.44-.25-3.76-.24-6.42-5.01-6.44-8.67l-.75-100.6c-.05-6.84-6.01-11.57-12.02-12.5-8.16-1.26-13.07,2.78-17.82,8.75-9.62,12.11-18.45,24.41-27.12,37.27-7.9,11.71-15.67,23.03-24.32,34.17-12.71,16.37-26.55,29.98-46.04,37.59-14.51,5.67-29.4,5.28-44.18.79Z"/>
  <path class="cls-1" d="M268.75,330.81v-23.7c-.01-1.41.49-3.24,1.31-4.43l27.24-39.77c1.01-1.47,3.4-1.55,4.93-1.24,1.2.24,3.36,1.36,3.36,3.25l.05,73.55h-27.69c-4.54.02-8.16-3.21-9.2-7.67Z"/>
</svg>