<svg width="512" height="512" viewBox="0 0 512 512" fill="none" xmlns="http://www.w3.org/2000/svg">
<rect width="512" height="512" fill="white"/>
<path d="M346.692 289.574H345.251C343.299 289.574 341.469 290.523 340.397 292.094L299.812 351.371C298.275 353.617 297.456 356.239 297.456 358.929V392.135C297.456 399.794 303.901 406 311.847 406H353.218V295.855C353.218 292.38 350.296 289.568 346.699 289.568L346.692 289.574Z" fill="black"/>
<path d="M414.319 192.995C403.252 192.995 391.578 196.026 381.502 200.764C377.003 202.791 372.641 205.133 368.442 207.707C367.084 208.54 365.718 209.359 364.387 210.233C361.431 212.09 358.461 214.752 358.461 214.752C358.359 214.779 358.256 214.8 358.154 214.8H353.246C353.246 214.8 353.239 210.97 353.225 204.846V112.356C353.225 108.881 350.303 106.068 346.705 106.068H345.265C345.265 106.068 345.203 106.068 345.176 106.068C345.046 106.055 344.91 106.034 344.78 106.027C344.651 106.014 344.514 106 344.384 106H297.504V156.287C297.504 158.942 297.49 161.598 297.49 164.254C297.443 186.461 297.395 208.669 297.34 230.87C297.306 245.965 297.272 261.066 297.238 276.16C297.231 280.652 297.238 285.144 297.238 289.636C297.238 289.964 297.238 290.291 297.238 290.612C297.238 291.117 297.231 291.623 297.211 292.128C297.033 299.187 291.339 305.584 287.196 311.147C279.181 321.9 270.32 332.092 260.414 341.158C251.293 349.508 241.169 357.024 229.884 362.185C218.292 367.49 205.362 369.77 192.657 369.77C186.445 369.77 180.389 369.08 174.538 367.763C169.48 366.629 164.585 365.025 159.881 362.998C126.962 348.811 103.682 313.865 103.682 273.013C103.682 226.324 134.089 187.356 174.538 178.262C180.116 177.006 185.878 176.324 191.783 176.255C194.405 176.078 197.026 176.146 199.579 176.535C204.488 177.279 209.069 179.198 212.557 182.748C213.479 183.683 214.326 184.727 215.083 185.902C219.384 192.544 218.285 202.491 211.506 207.065C210.011 208.075 208.413 208.758 206.748 209.215C205.724 209.502 204.672 209.693 203.607 209.83C202.918 209.919 202.221 209.987 201.525 210.028C200.385 210.096 199.238 210.117 198.084 210.117H198.057C195.681 210.103 193.299 209.994 190.984 210.014C190.281 210.014 189.592 210.048 188.909 210.082C188.513 210.103 188.124 210.13 187.742 210.164C186.581 210.267 185.455 210.444 184.369 210.717C184.335 210.731 184.301 210.745 184.267 210.758C184.151 210.827 184.048 210.902 183.939 210.97C182.772 211.714 181.877 212.704 181.208 213.871C181.017 214.213 180.84 214.568 180.683 214.936C180.505 215.346 180.348 215.769 180.218 216.22C180.198 216.288 180.184 216.356 180.171 216.425C180.027 216.937 179.918 217.462 179.829 218.008C179.816 218.104 179.795 218.193 179.782 218.288C179.502 219.749 179.345 221.483 179.392 223.579C179.29 246.511 197.934 265.469 220.866 265.728C235.98 265.899 249.279 258.082 256.802 246.231C260.571 240.831 262.557 234.727 263.049 228.454C263.226 226.918 263.315 225.354 263.315 223.77C263.315 214.773 260.489 206.437 255.669 199.61C255.669 199.603 255.655 199.596 255.655 199.59C254.939 198.409 254.181 197.262 253.375 196.149C236.096 172.152 203.826 165.107 174.545 166.001C162.469 166.001 150.815 167.797 139.824 171.122C139.81 171.122 139.797 171.122 139.783 171.128C132.553 172.91 126.498 175.3 120.108 179.082C81.4541 198.893 55 239.131 55 285.54C55 310.629 62.7417 333.901 75.9517 353.126C79.3446 358.062 83.1062 362.731 87.1819 367.094C101.532 382.454 119.869 394.039 140.561 400.163C140.588 400.17 140.609 400.184 140.636 400.19C151.73 404.041 163.185 406.116 174.545 405.959C176.402 405.932 178.266 405.85 180.116 405.706C181.126 405.631 182.13 405.543 183.134 405.433C193.906 404.293 204.427 401.324 214.312 396.92C250.999 380.563 274.634 347.883 297.252 316.22V301.351C297.258 306.328 297.265 311.298 297.272 316.274C315.063 290.523 332.13 264.042 351.709 239.609C351.873 239.411 352.03 239.206 352.187 239.001C352.351 238.796 352.515 238.585 352.672 238.38C352.836 238.168 353 237.957 353.164 237.745C353.327 237.526 353.498 237.308 353.662 237.096C353.833 236.878 353.996 236.653 354.167 236.434C354.338 236.209 354.509 235.984 354.679 235.758C354.85 235.533 355.027 235.308 355.198 235.076C355.375 234.844 355.546 234.618 355.724 234.386C355.901 234.154 356.079 233.929 356.256 233.697C356.434 233.465 356.618 233.232 356.795 233C356.98 232.768 357.157 232.536 357.342 232.304C357.526 232.072 357.71 231.84 357.895 231.608C357.915 231.58 357.936 231.553 357.963 231.526C361.882 227.088 368.988 220.746 377.597 220.814C377.925 220.814 378.252 220.821 378.58 220.842C379.522 220.876 380.464 220.958 381.406 221.074C382.273 221.183 383.14 221.32 383.994 221.497C384.779 221.668 385.564 221.866 386.335 222.105C387.052 222.323 387.755 222.589 388.452 222.869C389.107 223.142 389.742 223.443 390.363 223.77C390.943 224.091 391.517 224.433 392.063 224.801C392.589 225.143 393.087 225.518 393.572 225.921C394.029 226.296 394.48 226.699 394.903 227.116C395.306 227.518 395.695 227.942 396.064 228.372C396.412 228.788 396.753 229.218 397.067 229.662C397.368 230.092 397.654 230.529 397.927 230.98C398.187 231.41 398.426 231.847 398.658 232.297C398.87 232.714 399.074 233.144 399.252 233.581C399.429 233.997 399.593 234.413 399.743 234.83C399.894 235.219 400.016 235.615 400.132 236.018C400.242 236.386 400.344 236.755 400.433 237.124C400.515 237.458 400.59 237.786 400.651 238.12C400.706 238.414 400.767 238.708 400.815 239.001C400.849 239.247 400.89 239.493 400.911 239.738C400.938 239.93 400.959 240.121 400.979 240.312C400.986 240.442 400.993 240.571 401.006 240.701C401.013 240.769 401.013 240.831 401.013 240.906L401.081 253.665L401.798 390.066C402.215 405.058 412.803 405.959 412.803 405.959H456.161V224.159C456.161 224.159 456.161 224.125 456.161 224.105C456.161 206.894 437.428 192.961 414.326 192.961L414.319 192.995Z" fill="black"/>
</svg>
