<svg width="256" height="256" viewBox="0 0 256 256" fill="none" xmlns="http://www.w3.org/2000/svg">
<rect width="256" height="256" fill="white"/>
<path d="M224.31 106.213C221.291 102.164 217.247 98.9298 212.351 97.5123C207.312 96.0541 201.903 96.5022 196.917 97.9482C192.457 99.2394 188.221 101.272 184.266 103.695C183.333 104.266 182.396 104.828 181.5 105.455C181.08 105.748 180.673 106.062 180.286 106.396C179.985 106.657 179.565 107.231 179.129 107.231H176.681C176.681 107.231 176.624 80.6247 176.596 66.8531V57.3747C176.596 55.0366 174.763 53.1344 172.457 53.0122C172.392 53.0041 172.327 53 172.262 53H148.89V78.0708C148.89 79.3946 148.881 80.7184 148.881 82.0422C148.857 93.1132 148.833 104.18 148.808 115.251C148.792 122.779 148.776 130.302 148.759 137.829C148.755 140.069 148.759 142.306 148.759 144.546C148.759 144.709 148.759 144.872 148.759 145.035C148.759 145.287 148.755 145.54 148.747 145.792C148.657 149.312 145.818 152.501 143.753 155.275C139.757 160.635 135.342 165.719 130.401 170.236C125.851 174.399 120.809 178.142 115.179 180.72C109.4 183.368 102.956 184.5 96.6218 184.5C93.5262 184.5 90.5038 184.154 87.5914 183.498C85.0701 182.932 82.6302 182.134 80.2841 181.124C63.873 174.048 52.2684 156.631 52.2684 136.269C52.2684 112.995 67.4249 93.5694 87.5914 89.0359C90.3694 88.4086 93.2451 88.0665 96.186 88.038C97.4935 87.9484 98.801 87.985 100.076 88.1765C102.524 88.5471 104.805 89.5043 106.544 91.2721C107.005 91.7365 107.428 92.2619 107.803 92.8444C109.945 96.1559 109.395 101.113 106.019 103.394C105.273 103.895 104.475 104.237 103.648 104.465C103.139 104.608 102.614 104.702 102.084 104.771C101.742 104.816 101.396 104.848 101.045 104.873C100.479 104.909 99.9048 104.917 99.3305 104.917H99.3142C98.1289 104.913 96.9395 104.856 95.7909 104.869C95.4406 104.869 95.0984 104.885 94.7563 104.905C94.5608 104.917 94.3653 104.93 94.1738 104.946C93.5954 104.999 93.0333 105.084 92.4916 105.223C92.4753 105.231 92.459 105.235 92.4386 105.243C92.3816 105.276 92.3327 105.317 92.2757 105.349C91.6932 105.72 91.2452 106.213 90.9152 106.795C90.8175 106.966 90.7319 107.141 90.6505 107.325C90.5649 107.528 90.4834 107.74 90.4183 107.964C90.4101 107.997 90.402 108.034 90.3938 108.066C90.3246 108.319 90.2676 108.583 90.2228 108.856C90.2146 108.901 90.2065 108.95 90.1983 108.995C90.0598 109.724 89.9825 110.587 90.0028 111.63C89.9539 123.064 99.245 132.514 110.679 132.64C118.214 132.725 124.841 128.827 128.593 122.921C130.47 120.229 131.46 117.186 131.709 114.058C131.798 113.292 131.839 112.514 131.839 111.724C131.839 107.239 130.43 103.085 128.026 99.6793C128.026 99.6752 128.022 99.6712 128.018 99.6712C127.66 99.0846 127.285 98.5103 126.882 97.9563C118.267 85.9932 102.182 82.4821 87.5874 82.9301C81.5671 82.9301 75.7587 83.8222 70.2802 85.4841C70.272 85.4841 70.268 85.4841 70.2598 85.4881C66.655 86.3761 63.6367 87.5696 60.4678 89.4473C60.4678 89.4473 60.4678 89.4473 60.4637 89.4473H60.4555C41.1851 99.3209 28 119.382 28 142.518C28 155.026 31.8574 166.627 38.4438 176.211C40.1342 178.672 42.0079 180.997 44.0445 183.177C51.1971 190.834 60.3374 196.61 70.6549 199.661C70.6672 199.665 70.6794 199.669 70.6916 199.673C76.219 201.592 81.9297 202.626 87.5955 202.549C88.5201 202.537 89.4488 202.496 90.3735 202.423C90.8745 202.386 91.3796 202.341 91.8765 202.288C97.2491 201.722 102.491 200.239 107.42 198.044C125.709 189.889 137.493 173.596 148.767 157.813V150.403C148.767 152.884 148.776 155.365 148.78 157.841C157.651 145.006 166.156 131.805 175.92 119.622C176.001 119.52 176.078 119.422 176.16 119.32C176.241 119.219 176.323 119.113 176.404 119.011C176.486 118.905 176.567 118.799 176.649 118.693C176.73 118.583 176.816 118.477 176.897 118.367C176.983 118.257 177.064 118.147 177.15 118.037C177.235 117.927 177.321 117.813 177.406 117.703C177.492 117.589 177.577 117.479 177.667 117.365C177.753 117.251 177.842 117.137 177.928 117.023C178.017 116.909 178.103 116.795 178.192 116.677C178.282 116.563 178.372 116.445 178.461 116.331C178.551 116.217 178.645 116.099 178.734 115.984C178.828 115.87 178.917 115.752 179.011 115.638C179.105 115.524 179.199 115.41 179.292 115.292C179.386 115.178 179.48 115.064 179.577 114.95C179.671 114.836 179.769 114.722 179.867 114.612C179.964 114.498 180.058 114.388 180.16 114.278C180.258 114.168 180.355 114.058 180.453 113.948C180.551 113.838 180.653 113.732 180.75 113.626C180.852 113.52 180.95 113.414 181.052 113.308C181.154 113.202 181.256 113.101 181.357 112.999C181.459 112.897 181.565 112.795 181.667 112.697C181.773 112.6 181.875 112.502 181.981 112.408C182.086 112.314 182.192 112.221 182.298 112.127C182.404 112.037 182.514 111.944 182.624 111.858C182.734 111.773 182.84 111.683 182.954 111.602C183.064 111.52 183.174 111.439 183.288 111.357C183.398 111.28 183.512 111.202 183.626 111.125C183.74 111.052 183.854 110.978 183.968 110.909C184.16 110.791 184.359 110.685 184.555 110.579C184.771 110.547 184.991 110.514 185.207 110.486C185.504 110.445 185.801 110.412 186.099 110.38C186.657 110.323 187.215 110.286 187.777 110.266C188.29 110.249 188.803 110.249 189.321 110.27C189.793 110.29 190.266 110.327 190.734 110.384C191.166 110.437 191.597 110.506 192.021 110.596C192.416 110.677 192.807 110.779 193.19 110.897C193.549 111.007 193.903 111.133 194.249 111.28C194.571 111.414 194.889 111.565 195.198 111.728C195.487 111.883 195.773 112.054 196.045 112.237C196.306 112.412 196.559 112.596 196.799 112.795C197.031 112.982 197.251 113.182 197.463 113.394C197.667 113.593 197.858 113.801 198.041 114.021C198.216 114.229 198.383 114.445 198.542 114.665C198.693 114.877 198.836 115.096 198.97 115.321C199.096 115.532 199.219 115.752 199.333 115.972C199.438 116.184 199.54 116.396 199.634 116.616C199.724 116.819 199.801 117.027 199.878 117.239C199.948 117.435 200.013 117.63 200.074 117.83C200.127 118.013 200.18 118.196 200.225 118.38C200.265 118.547 200.302 118.709 200.335 118.876C200.363 119.023 200.392 119.17 200.412 119.316C200.432 119.439 200.449 119.561 200.465 119.683C200.477 119.777 200.485 119.874 200.493 119.968C200.497 120.033 200.506 120.098 200.51 120.164C200.51 120.196 200.51 120.225 200.514 120.265L200.901 194.618C201.108 202.097 206.387 202.545 206.387 202.545H228V114.184C228 111.044 224.318 106.213 224.318 106.213H224.31Z" fill="black"/>
<path d="M172.873 144.505H172.18C171.239 144.505 170.364 144.978 169.846 145.76L150.348 175.311C149.611 176.427 149.215 177.739 149.215 179.079V195.633C149.215 199.449 152.311 202.545 156.128 202.545H176.005V147.638C176.005 145.906 174.604 144.505 172.873 144.505Z" fill="black"/>
</svg>
