<svg width="512" height="512" viewBox="0 0 512 512" fill="none" xmlns="http://www.w3.org/2000/svg">
<rect width="512" height="512" rx="256" fill="white"/>
<path d="M436.54 215.627C430.889 208.047 423.316 201.992 414.15 199.338C404.716 196.608 394.589 197.447 385.255 200.154C376.904 202.572 368.973 206.377 361.568 210.914C359.822 211.982 358.067 213.035 356.39 214.209C355.604 214.758 354.842 215.345 354.117 215.971C353.553 216.459 352.767 217.534 351.951 217.534H347.368C347.368 217.534 347.261 167.72 347.208 141.936V124.19C347.208 119.813 343.776 116.252 339.46 116.023C339.338 116.008 339.216 116 339.094 116H295.335V162.939C295.335 165.417 295.32 167.896 295.32 170.374C295.274 191.102 295.228 211.822 295.183 232.55C295.152 246.643 295.122 260.728 295.091 274.821C295.084 279.016 295.091 283.202 295.091 287.397C295.091 287.702 295.091 288.007 295.091 288.312C295.091 288.785 295.083 289.257 295.068 289.73C294.9 296.319 289.585 302.29 285.719 307.484C278.237 317.52 269.971 327.037 260.72 335.495C252.202 343.288 242.761 350.297 232.222 355.124C221.4 360.081 209.336 362.201 197.477 362.201C191.681 362.201 186.023 361.553 180.57 360.325C175.849 359.265 171.281 357.77 166.889 355.879C136.163 342.633 114.436 310.023 114.436 271.9C114.436 228.325 142.813 191.956 180.57 183.468C185.771 182.294 191.155 181.653 196.661 181.6C199.109 181.432 201.557 181.501 203.944 181.859C208.527 182.553 212.798 184.345 216.054 187.655C216.916 188.524 217.709 189.508 218.411 190.599C222.422 196.799 221.392 206.08 215.07 210.35C213.675 211.288 212.18 211.929 210.632 212.356C209.679 212.623 208.695 212.798 207.704 212.928C207.063 213.012 206.415 213.073 205.759 213.118C204.699 213.187 203.624 213.202 202.548 213.202H202.518C200.299 213.195 198.072 213.088 195.921 213.111C195.265 213.111 194.625 213.141 193.984 213.179C193.618 213.202 193.252 213.225 192.894 213.256C191.811 213.355 190.758 213.515 189.744 213.774C189.714 213.79 189.683 213.797 189.645 213.812C189.538 213.873 189.447 213.95 189.34 214.011C188.249 214.705 187.411 215.627 186.793 216.718C186.61 217.038 186.45 217.366 186.297 217.709C186.137 218.091 185.984 218.487 185.862 218.907C185.847 218.968 185.832 219.036 185.817 219.097C185.687 219.57 185.58 220.066 185.496 220.577C185.481 220.661 185.466 220.752 185.451 220.836C185.191 222.201 185.046 223.818 185.085 225.77C184.993 247.177 202.388 264.869 223.795 265.106C237.903 265.266 250.311 257.968 257.334 246.91C260.85 241.869 262.703 236.172 263.168 230.315C263.336 228.882 263.412 227.425 263.412 225.946C263.412 217.549 260.774 209.771 256.274 203.395C256.274 203.388 256.267 203.38 256.259 203.38C255.588 202.282 254.886 201.206 254.131 200.169C238.002 177.771 207.887 171.198 180.562 172.037C169.291 172.037 158.416 173.707 148.159 176.818C148.144 176.818 148.136 176.818 148.121 176.826C141.372 178.488 135.721 180.723 129.788 184.238C129.788 184.238 129.788 184.238 129.78 184.238H129.765C93.6857 202.724 69 240.283 69 283.599C69 307.019 76.2219 328.738 88.5533 346.682C91.7182 351.288 95.2262 355.643 99.0392 359.723C112.431 374.06 129.544 384.874 148.861 390.586C148.883 390.593 148.906 390.601 148.929 390.608C159.278 394.2 169.97 396.137 180.578 395.992C182.309 395.97 184.047 395.893 185.779 395.756C186.717 395.687 187.662 395.603 188.593 395.504C198.651 394.444 208.466 391.668 217.694 387.558C251.935 372.29 273.997 341.786 295.106 312.235V298.363C295.106 303.007 295.122 307.652 295.129 312.288C311.739 288.258 327.662 263.542 345.942 240.733C346.095 240.542 346.239 240.359 346.392 240.168C346.544 239.978 346.697 239.779 346.85 239.589C347.002 239.39 347.155 239.192 347.307 238.994C347.46 238.788 347.62 238.59 347.772 238.384C347.932 238.178 348.085 237.972 348.245 237.766C348.405 237.56 348.565 237.347 348.725 237.141C348.886 236.927 349.046 236.721 349.214 236.508C349.374 236.294 349.542 236.081 349.702 235.867C349.869 235.654 350.03 235.44 350.197 235.219C350.365 235.005 350.533 234.784 350.701 234.571C350.868 234.357 351.044 234.136 351.212 233.922C351.387 233.709 351.555 233.488 351.73 233.274C351.906 233.061 352.081 232.847 352.256 232.626C352.432 232.412 352.607 232.199 352.79 231.985C352.966 231.772 353.149 231.558 353.332 231.352C353.515 231.139 353.69 230.933 353.881 230.727C354.064 230.521 354.247 230.315 354.43 230.109C354.613 229.903 354.804 229.705 354.987 229.507C355.177 229.309 355.36 229.11 355.551 228.912C355.742 228.714 355.932 228.523 356.123 228.333C356.313 228.142 356.512 227.951 356.702 227.768C356.901 227.585 357.091 227.402 357.29 227.227C357.488 227.051 357.686 226.876 357.884 226.701C358.083 226.533 358.289 226.357 358.495 226.197C358.7 226.037 358.899 225.869 359.112 225.717C359.318 225.564 359.524 225.412 359.738 225.259C359.943 225.114 360.157 224.969 360.371 224.825C360.584 224.687 360.798 224.55 361.011 224.42C361.37 224.199 361.743 224.001 362.109 223.803C362.513 223.742 362.925 223.681 363.33 223.627C363.886 223.551 364.443 223.49 365 223.429C366.044 223.322 367.089 223.254 368.142 223.215C369.102 223.185 370.063 223.185 371.032 223.223C371.916 223.261 372.801 223.33 373.678 223.437C374.487 223.536 375.295 223.665 376.088 223.833C376.828 223.986 377.56 224.176 378.277 224.397C378.948 224.603 379.611 224.84 380.259 225.114C380.862 225.366 381.457 225.648 382.036 225.953C382.578 226.243 383.112 226.563 383.623 226.906C384.111 227.234 384.583 227.578 385.033 227.951C385.468 228.302 385.88 228.676 386.276 229.072C386.658 229.446 387.016 229.835 387.359 230.247C387.687 230.636 388 231.04 388.297 231.452C388.58 231.848 388.846 232.26 389.098 232.679C389.335 233.076 389.563 233.488 389.777 233.9C389.975 234.296 390.166 234.693 390.341 235.104C390.509 235.486 390.654 235.875 390.799 236.271C390.928 236.637 391.05 237.003 391.165 237.377C391.264 237.72 391.363 238.063 391.447 238.407C391.523 238.719 391.592 239.024 391.653 239.337C391.706 239.612 391.76 239.886 391.798 240.161C391.836 240.389 391.866 240.618 391.897 240.847C391.92 241.022 391.935 241.205 391.95 241.381C391.958 241.503 391.973 241.625 391.981 241.747C391.981 241.808 391.981 241.861 391.988 241.937L392.713 381.144C393.102 395.146 402.985 395.985 402.985 395.985H443.449V230.552C443.449 224.672 436.555 215.627 436.555 215.627H436.54Z" fill="black"/>
<path d="M340.238 287.32H338.941C337.18 287.32 335.54 288.205 334.572 289.669L298.065 344.997C296.685 347.086 295.945 349.542 295.945 352.051V383.043C295.945 390.189 301.741 395.985 308.887 395.985H346.102V293.185C346.102 289.944 343.479 287.32 340.238 287.32Z" fill="black"/>
</svg>
