<svg width="491" height="368" viewBox="0 0 491 368" fill="none" xmlns="http://www.w3.org/2000/svg">
<path d="M481.95 130.64C474.54 120.7 464.61 112.76 452.59 109.28C440.22 105.7 426.94 106.8 414.7 110.35C403.75 113.52 393.35 118.51 383.64 124.46C381.35 125.86 379.05 127.24 376.85 128.78C375.82 129.5 374.82 130.27 373.87 131.09C373.13 131.73 372.1 133.14 371.03 133.14H365.02C365.02 133.14 364.88 67.82 364.81 34.01V10.74C364.81 4.99999 360.31 0.329999 354.65 0.0299988C354.49 0.00999878 354.33 0 354.17 0H296.79V61.55C296.79 64.8 296.77 68.05 296.77 71.3C296.71 98.48 296.65 125.65 296.59 152.83C296.55 171.31 296.51 189.78 296.47 208.26C296.46 213.76 296.47 219.25 296.47 224.75C296.47 225.15 296.47 225.55 296.47 225.95C296.47 226.57 296.46 227.19 296.44 227.81C296.22 236.45 289.25 244.28 284.18 251.09C274.37 264.25 263.53 276.73 251.4 287.82C240.23 298.04 227.85 307.23 214.03 313.56C199.84 320.06 184.02 322.84 168.47 322.84C160.87 322.84 153.45 321.99 146.3 320.38C140.11 318.99 134.12 317.03 128.36 314.55C88.07 297.18 59.58 254.42 59.58 204.43C59.58 147.29 96.79 99.6 146.3 88.47C153.12 86.93 160.18 86.09 167.4 86.02C170.61 85.8 173.82 85.89 176.95 86.36C182.96 87.27 188.56 89.62 192.83 93.96C193.96 95.1 195 96.39 195.92 97.82C201.18 105.95 199.83 118.12 191.54 123.72C189.71 124.95 187.75 125.79 185.72 126.35C184.47 126.7 183.18 126.93 181.88 127.1C181.04 127.21 180.19 127.29 179.33 127.35C177.94 127.44 176.53 127.46 175.12 127.46H175.08C172.17 127.45 169.25 127.31 166.43 127.34C165.57 127.34 164.73 127.38 163.89 127.43C163.41 127.46 162.93 127.49 162.46 127.53C161.04 127.66 159.66 127.87 158.33 128.21C158.29 128.23 158.25 128.24 158.2 128.26C158.06 128.34 157.94 128.44 157.8 128.52C156.37 129.43 155.27 130.64 154.46 132.07C154.22 132.49 154.01 132.92 153.81 133.37C153.6 133.87 153.4 134.39 153.24 134.94C153.22 135.02 153.2 135.11 153.18 135.19C153.01 135.81 152.87 136.46 152.76 137.13C152.74 137.24 152.72 137.36 152.7 137.47C152.36 139.26 152.17 141.38 152.22 143.94C152.1 172.01 174.91 195.21 202.98 195.52C221.48 195.73 237.75 186.16 246.96 171.66C251.57 165.05 254 157.58 254.61 149.9C254.83 148.02 254.93 146.11 254.93 144.17C254.93 133.16 251.47 122.96 245.57 114.6C245.57 114.59 245.56 114.58 245.55 114.58C244.67 113.14 243.75 111.73 242.76 110.37C221.61 81 182.12 72.38 146.29 73.48C131.51 73.48 117.25 75.67 103.8 79.75C103.78 79.75 103.77 79.75 103.75 79.76C94.9 81.94 87.49 84.87 79.71 89.48C79.71 89.48 79.71 89.48 79.7 89.48H79.68C32.37 113.72 0 162.97 0 219.77C0 250.48 9.47001 278.96 25.64 302.49C29.79 308.53 34.39 314.24 39.39 319.59C56.95 338.39 79.39 352.57 104.72 360.06C104.75 360.07 104.78 360.08 104.81 360.09C118.38 364.8 132.4 367.34 146.31 367.15C148.58 367.12 150.86 367.02 153.13 366.84C154.36 366.75 155.6 366.64 156.82 366.51C170.01 365.12 182.88 361.48 194.98 356.09C239.88 336.07 268.81 296.07 296.49 257.32V239.13C296.49 245.22 296.51 251.31 296.52 257.39C318.3 225.88 339.18 193.47 363.15 163.56C363.35 163.31 363.54 163.07 363.74 162.82C363.94 162.57 364.14 162.31 364.34 162.06C364.54 161.8 364.74 161.54 364.94 161.28C365.14 161.01 365.35 160.75 365.55 160.48C365.76 160.21 365.96 159.94 366.17 159.67C366.38 159.4 366.59 159.12 366.8 158.85C367.01 158.57 367.22 158.3 367.44 158.02C367.65 157.74 367.87 157.46 368.08 157.18C368.3 156.9 368.51 156.62 368.73 156.33C368.95 156.05 369.17 155.76 369.39 155.48C369.61 155.2 369.84 154.91 370.06 154.63C370.29 154.35 370.51 154.06 370.74 153.78C370.97 153.5 371.2 153.22 371.43 152.93C371.66 152.65 371.89 152.37 372.13 152.09C372.36 151.81 372.6 151.53 372.84 151.26C373.08 150.98 373.31 150.71 373.56 150.44C373.8 150.17 374.04 149.9 374.28 149.63C374.52 149.36 374.77 149.1 375.01 148.84C375.26 148.58 375.5 148.32 375.75 148.06C376 147.8 376.25 147.55 376.5 147.3C376.75 147.05 377.01 146.8 377.26 146.56C377.52 146.32 377.77 146.08 378.03 145.85C378.29 145.62 378.55 145.39 378.81 145.16C379.07 144.94 379.34 144.71 379.61 144.5C379.88 144.29 380.14 144.07 380.42 143.87C380.69 143.67 380.96 143.47 381.24 143.27C381.51 143.08 381.79 142.89 382.07 142.7C382.35 142.52 382.63 142.34 382.91 142.17C383.38 141.88 383.87 141.62 384.35 141.36C384.88 141.28 385.42 141.2 385.95 141.13C386.68 141.03 387.41 140.95 388.14 140.87C389.51 140.73 390.88 140.64 392.26 140.59C393.52 140.55 394.78 140.55 396.05 140.6C397.21 140.65 398.37 140.74 399.52 140.88C400.58 141.01 401.64 141.18 402.68 141.4C403.65 141.6 404.61 141.85 405.55 142.14C406.43 142.41 407.3 142.72 408.15 143.08C408.94 143.41 409.72 143.78 410.48 144.18C411.19 144.56 411.89 144.98 412.56 145.43C413.2 145.86 413.82 146.31 414.41 146.8C414.98 147.26 415.52 147.75 416.04 148.27C416.54 148.76 417.01 149.27 417.46 149.81C417.89 150.32 418.3 150.85 418.69 151.39C419.06 151.91 419.41 152.45 419.74 153C420.05 153.52 420.35 154.06 420.63 154.6C420.89 155.12 421.14 155.64 421.37 156.18C421.59 156.68 421.78 157.19 421.97 157.71C422.14 158.19 422.3 158.67 422.45 159.16C422.58 159.61 422.71 160.06 422.82 160.51C422.92 160.92 423.01 161.32 423.09 161.73C423.16 162.09 423.23 162.45 423.28 162.81C423.33 163.11 423.37 163.41 423.41 163.71C423.44 163.94 423.46 164.18 423.48 164.41C423.49 164.57 423.51 164.73 423.52 164.89C423.52 164.97 423.52 165.04 423.53 165.14L424.48 347.68C424.99 366.04 437.95 367.14 437.95 367.14H491.01V150.21C491.01 142.5 481.97 130.64 481.97 130.64H481.95Z" fill="black"/>
<path d="M355.67 224.65H353.97C351.66 224.65 349.51 225.81 348.24 227.73L300.37 300.28C298.56 303.02 297.59 306.24 297.59 309.53V350.17C297.59 359.54 305.19 367.14 314.56 367.14H363.36V232.34C363.36 228.09 359.92 224.65 355.67 224.65Z" fill="black"/>
</svg>
