<svg width="970" height="970" viewBox="0 0 970 970" fill="none" xmlns="http://www.w3.org/2000/svg">
<path d="M484.73 969.46C752.439 969.46 969.46 752.439 969.46 484.73C969.46 217.021 752.439 0 484.73 0C217.021 0 0 217.021 0 484.73C0 752.439 217.021 969.46 484.73 969.46Z" fill="white"/>
<path d="M598.35 510.21H596.24C593.38 510.21 590.7 511.6 589.13 513.9L529.68 600.73C527.43 604.02 526.23 607.86 526.23 611.8V660.44C526.23 671.66 535.67 680.75 547.31 680.75H607.91V519.41C607.91 514.32 603.63 510.2 598.36 510.2L598.35 510.21Z" fill="black"/>
<path d="M697.41 368.74C681.2 368.74 664.1 373.18 649.34 380.12C642.75 383.09 636.36 386.52 630.21 390.29C628.22 391.51 626.22 392.71 624.27 393.99C619.94 396.71 615.59 400.61 615.59 400.61C615.44 400.65 615.29 400.68 615.14 400.68H607.95C607.95 400.68 607.94 395.07 607.92 386.1V250.62C607.92 245.53 603.64 241.41 598.37 241.41H596.26C596.26 241.41 596.17 241.41 596.13 241.41C595.94 241.39 595.74 241.36 595.55 241.35C595.36 241.33 595.16 241.31 594.97 241.31H526.3V314.97C526.3 318.86 526.28 322.75 526.28 326.64C526.21 359.17 526.14 391.7 526.06 424.22C526.01 446.33 525.96 468.45 525.91 490.56C525.9 497.14 525.91 503.72 525.91 510.3C525.91 510.78 525.91 511.26 525.91 511.73C525.91 512.47 525.9 513.21 525.87 513.95C525.61 524.29 517.27 533.66 511.2 541.81C499.46 557.56 486.48 572.49 471.97 585.77C458.61 598 443.78 609.01 427.25 616.57C410.27 624.34 391.33 627.68 372.72 627.68C363.62 627.68 354.75 626.67 346.18 624.74C338.77 623.08 331.6 620.73 324.71 617.76C276.49 596.98 242.39 545.79 242.39 485.95C242.39 417.56 286.93 360.48 346.18 347.16C354.35 345.32 362.79 344.32 371.44 344.22C375.28 343.96 379.12 344.06 382.86 344.63C390.05 345.72 396.76 348.53 401.87 353.73C403.22 355.1 404.46 356.63 405.57 358.35C411.87 368.08 410.26 382.65 400.33 389.35C398.14 390.83 395.8 391.83 393.36 392.5C391.86 392.92 390.32 393.2 388.76 393.4C387.75 393.53 386.73 393.63 385.71 393.69C384.04 393.79 382.36 393.82 380.67 393.82H380.63C377.15 393.8 373.66 393.64 370.27 393.67C369.24 393.67 368.23 393.72 367.23 393.77C366.65 393.8 366.08 393.84 365.52 393.89C363.82 394.04 362.17 394.3 360.58 394.7C360.53 394.72 360.48 394.74 360.43 394.76C360.26 394.86 360.11 394.97 359.95 395.07C358.24 396.16 356.93 397.61 355.95 399.32C355.67 399.82 355.41 400.34 355.18 400.88C354.92 401.48 354.69 402.1 354.5 402.76C354.47 402.86 354.45 402.96 354.43 403.06C354.22 403.81 354.06 404.58 353.93 405.38C353.91 405.52 353.88 405.65 353.86 405.79C353.45 407.93 353.22 410.47 353.29 413.54C353.14 447.13 380.45 474.9 414.04 475.28C436.18 475.53 455.66 464.08 466.68 446.72C472.2 438.81 475.11 429.87 475.83 420.68C476.09 418.43 476.22 416.14 476.22 413.82C476.22 400.64 472.08 388.43 465.02 378.43C465.02 378.42 465 378.41 465 378.4C463.95 376.67 462.84 374.99 461.66 373.36C436.35 338.21 389.08 327.89 346.19 329.2C328.5 329.2 311.43 331.83 295.33 336.7C295.31 336.7 295.29 336.7 295.27 336.71C284.68 339.32 275.81 342.82 266.45 348.36C209.83 377.38 171.08 436.32 171.08 504.3C171.08 541.05 182.42 575.14 201.77 603.3C206.74 610.53 212.25 617.37 218.22 623.76C239.24 646.26 266.1 663.23 296.41 672.2C296.45 672.21 296.48 672.23 296.52 672.24C312.77 677.88 329.55 680.92 346.19 680.69C348.91 680.65 351.64 680.53 354.35 680.32C355.83 680.21 357.3 680.08 358.77 679.92C374.55 678.25 389.96 673.9 404.44 667.45C458.18 643.49 492.8 595.62 525.93 549.24V527.46C525.94 534.75 525.95 542.03 525.96 549.32C552.02 511.6 577.02 472.81 605.7 437.02C605.94 436.73 606.17 436.43 606.4 436.13C606.64 435.83 606.88 435.52 607.11 435.22C607.35 434.91 607.59 434.6 607.83 434.29C608.07 433.97 608.32 433.65 608.56 433.34C608.81 433.02 609.05 432.69 609.3 432.37C609.55 432.04 609.8 431.71 610.05 431.38C610.3 431.05 610.56 430.72 610.81 430.38C611.07 430.04 611.32 429.71 611.58 429.37C611.84 429.03 612.1 428.7 612.36 428.36C612.62 428.02 612.89 427.68 613.15 427.34C613.42 427 613.68 426.66 613.95 426.32C614.22 425.98 614.49 425.64 614.76 425.3C614.79 425.26 614.82 425.22 614.86 425.18C620.6 418.68 631.01 409.39 643.62 409.49C644.1 409.49 644.58 409.5 645.06 409.53C646.44 409.58 647.82 409.7 649.2 409.87C650.47 410.03 651.74 410.23 652.99 410.49C654.14 410.74 655.29 411.03 656.42 411.38C657.47 411.7 658.5 412.09 659.52 412.5C660.48 412.9 661.41 413.34 662.32 413.82C663.17 414.29 664.01 414.79 664.81 415.33C665.58 415.83 666.31 416.38 667.02 416.97C667.69 417.52 668.35 418.11 668.97 418.72C669.56 419.31 670.13 419.93 670.67 420.56C671.18 421.17 671.68 421.8 672.14 422.45C672.58 423.08 673 423.72 673.4 424.38C673.78 425.01 674.13 425.65 674.47 426.31C674.78 426.92 675.08 427.55 675.34 428.19C675.6 428.8 675.84 429.41 676.06 430.02C676.28 430.59 676.46 431.17 676.63 431.76C676.79 432.3 676.94 432.84 677.07 433.38C677.19 433.87 677.3 434.35 677.39 434.84C677.47 435.27 677.56 435.7 677.63 436.13C677.68 436.49 677.74 436.85 677.77 437.21C677.81 437.49 677.84 437.77 677.87 438.05C677.88 438.24 677.89 438.43 677.91 438.62C677.92 438.72 677.92 438.81 677.92 438.92L678.02 457.61L679.07 657.41C679.68 679.37 695.19 680.69 695.19 680.69H758.7V414.39C758.7 414.39 758.7 414.34 758.7 414.31C758.7 389.1 731.26 368.69 697.42 368.69L697.41 368.74Z" fill="black"/>
</svg>
